<svg xmlns="http://www.w3.org/2000/svg" width="304" height="334" viewBox="0 0 304 334" version="1.1">
	<path d="M 158.200 3.723 C 154.795 4.726, 151.174 6.836, 148.070 9.627 C 143.406 13.820, 142.882 14.020, 132.825 15.432 C 122.396 16.896, 117 18.335, 117 19.654 C 117 22.591, 119.964 27.058, 123.862 29.994 C 126.413 31.915, 128.831 33.940, 129.235 34.494 C 129.721 35.160, 130.004 35.162, 130.071 34.500 C 130.126 33.950, 130.557 34.785, 131.028 36.356 C 131.729 38.694, 131.452 39.679, 129.501 41.782 C 127.578 43.856, 127.323 44.734, 128.177 46.331 C 129.023 47.912, 128.565 49.698, 125.903 55.201 C 123.397 60.381, 122.822 62.494, 123.587 63.708 C 124.363 64.938, 124.033 65.939, 122.202 67.911 C 120.185 70.084, 119.871 71.257, 120.248 75.208 C 121.101 84.132, 128.896 90.745, 135.374 88.039 C 137.093 87.321, 141.870 86.408, 145.988 86.011 C 153.286 85.306, 153.554 85.360, 156.488 88.127 C 159.201 90.685, 159.465 91.471, 159.149 96.053 C 158.956 98.851, 158.281 101.285, 157.649 101.462 C 157.017 101.638, 152.225 102.781, 147 104.002 C 136.243 106.514, 136.795 106.183, 116.500 122.336 C 108.250 128.903, 100.979 134.684, 100.341 135.184 C 99.535 135.817, 96.256 131.864, 89.566 122.197 C 76.439 103.228, 73.575 100, 69.871 100 C 67.444 100, 66.641 99.385, 65.499 96.652 C 63.948 92.940, 62 79.134, 62 71.853 C 62 68.058, 61.352 66.305, 58.635 62.745 L 55.270 58.336 56.563 52.062 C 57.274 48.611, 57.624 45.273, 57.340 44.644 C 57.057 44.015, 53.377 40.462, 49.163 36.750 C 43.591 31.842, 40.735 30, 38.696 30 C 37.153 30, 32.980 28.245, 29.423 26.099 C 22.588 21.977, 19.538 21.731, 18.432 25.213 C 17.969 26.672, 18.796 28.231, 21.501 31.001 L 25.203 34.793 19.102 43.106 C 15.746 47.678, 13 52.032, 13 52.781 C 13 53.531, 11.919 56.024, 10.598 58.322 C 7.067 64.462, 3.313 75.672, 1.440 85.667 C 0.146 92.576, -0.105 98.425, 0.268 112.979 C 0.681 129.077, 1.089 132.729, 3.390 140.893 C 6.557 152.127, 12.842 165.933, 16.418 169.509 C 17.838 170.929, 19 172.505, 19 173.010 C 19 173.516, 19.900 174.411, 21 175 C 22.100 175.589, 23 176.641, 23 177.339 C 23 178.585, 29.022 185, 30.192 185 C 30.520 185, 32.234 186.350, 34 188 C 35.766 189.650, 37.839 191, 38.606 191 C 39.373 191, 40 191.382, 40 191.848 C 40 192.315, 41.913 193.544, 44.250 194.580 C 46.588 195.617, 49.168 197.108, 49.984 197.895 C 52.628 200.444, 61.956 204.172, 68.487 205.291 C 75.932 206.566, 86.907 205.440, 105 201.546 C 111.325 200.184, 120.213 198.768, 124.750 198.398 C 132.965 197.728, 133 197.735, 133.015 200.112 C 133.034 202.967, 133.852 204.317, 136.411 205.715 C 137.461 206.289, 138.833 208.276, 139.459 210.130 C 140.085 211.983, 141.177 213.375, 141.885 213.221 C 142.593 213.068, 143.400 213.814, 143.679 214.879 C 144.202 216.881, 146.670 217.939, 151 218.018 C 153.742 218.068, 157 220.111, 157 221.781 C 157 222.364, 159.751 229.717, 163.113 238.120 L 169.226 253.399 139.579 282.449 C 119.666 301.962, 109.943 312.166, 109.966 313.529 C 109.992 315.053, 111.789 316.402, 117.182 318.946 C 121.133 320.809, 124.958 322.333, 125.682 322.333 C 126.407 322.333, 127 322.783, 127 323.333 C 127 323.883, 127.262 324.072, 127.582 323.752 C 127.901 323.432, 129.814 323.860, 131.832 324.704 C 139.647 327.972, 157.123 331.801, 168.500 332.739 C 182.974 333.932, 202.870 333.237, 214.500 331.132 C 227.278 328.820, 228.974 328.296, 231 326.039 C 231.825 325.119, 237.519 320.233, 243.654 315.179 C 255.471 305.445, 258.065 302.128, 260.426 293.731 C 262.335 286.940, 263.592 268.437, 262.259 266.757 C 261.710 266.066, 260.705 262.575, 260.026 259 C 258.957 253.378, 259.064 250.496, 260.816 237.662 C 261.931 229.501, 263.010 222.657, 263.215 222.452 C 263.420 222.247, 268.968 221.803, 275.544 221.467 C 288.366 220.810, 298.356 219.415, 301.224 217.880 C 302.767 217.054, 303 215.424, 303 205.458 C 303 158.878, 280.304 105.481, 255 92.531 C 247.406 88.644, 222.684 82, 215.816 82 C 214.711 82, 211.648 79.587, 208.810 76.483 C 206.037 73.448, 203.083 71.086, 202.247 71.233 C 201.181 71.420, 200.055 69.531, 198.490 64.933 L 196.255 58.365 200.899 48.909 C 203.790 43.022, 205.665 37.764, 205.866 34.978 C 206.043 32.517, 206.410 30.146, 206.680 29.708 C 206.951 29.270, 206.710 28.356, 206.145 27.675 C 205.581 26.995, 204.896 25.211, 204.624 23.713 C 204.353 22.214, 203.442 20.299, 202.600 19.457 C 201.759 18.616, 200.282 16.594, 199.319 14.964 C 198.357 13.334, 197.248 12, 196.856 12 C 196.464 12, 195.548 11.438, 194.821 10.750 C 194.095 10.063, 191.250 8.427, 188.500 7.116 C 177.581 1.909, 167.998 0.836, 158.200 3.723 M 148 33.839 C 148 34.989, 148.925 36.425, 150.055 37.030 C 153.386 38.812, 153.704 37.713, 150.750 34.624 C 148.211 31.969, 148 31.909, 148 33.839 M 25 58.051 C 25 58.629, 23.433 59.757, 21.517 60.557 C 10.170 65.298, 3.245 110.028, 9.991 135 C 12.386 143.867, 15.167 150.810, 19.516 158.780 C 25.591 169.913, 26.727 169.948, 24.396 158.932 C 21.320 144.392, 23.741 110.358, 28.673 98.812 C 30.792 93.849, 29.801 90.701, 25.052 87.312 C 20.635 84.160, 19.367 81.040, 21.158 77.729 C 21.821 76.503, 22.483 74.421, 22.629 73.102 C 22.775 71.784, 23.369 70.231, 23.948 69.652 C 24.526 69.074, 25 67.591, 25 66.357 C 25 65.123, 25.933 63.460, 27.074 62.661 C 28.887 61.391, 28.982 60.945, 27.833 59.104 C 26.429 56.856, 25 56.325, 25 58.051 M 36.097 104.510 C 31.254 121.616, 30.283 145.678, 33.886 159.314 C 36.675 169.869, 41.375 178.368, 48.088 184.993 C 60.869 197.609, 72.213 199.609, 99.049 193.979 C 109.238 191.841, 118.525 190.569, 126.319 190.243 L 138.138 189.749 140.619 185.999 L 143.100 182.250 141.339 173.696 C 140.371 168.992, 139.216 165.366, 138.773 165.640 C 138.330 165.914, 138.269 166.627, 138.638 167.224 C 139.041 167.875, 138.843 168.021, 138.145 167.590 C 137.505 167.194, 134.173 167.989, 130.741 169.356 C 122.124 172.788, 108.715 176.536, 94.569 179.467 L 82.638 181.939 79.362 179.915 C 74.997 177.217, 67.663 169.005, 62.418 160.943 C 56.871 152.415, 41 121.274, 41 118.917 C 41 117.914, 41.491 116.016, 42.092 114.697 C 43.002 112.699, 42.688 111.320, 40.205 106.410 L 37.227 100.519 36.097 104.510" stroke="none" fill="black" fill-rule="evenodd"/>
</svg>