<svg xmlns="http://www.w3.org/2000/svg" width="210" height="210" viewBox="0 0 210 210" version="1.1">
	<path d="M 22.353 2.431 C 12.911 5.385, 4.383 14.435, 2.029 24 C 1.254 27.151, 1.008 52.180, 1.211 107.500 L 1.500 186.500 3.812 191.193 C 6.866 197.393, 12.528 203.100, 18.585 206.081 L 23.500 208.500 105 208.500 L 186.500 208.500 191.193 206.188 C 197.393 203.134, 203.100 197.472, 206.081 191.415 C 208.433 186.636, 208.509 185.743, 208.809 159.209 C 209.174 126.986, 208.696 124.215, 201.363 116.059 C 195.061 109.049, 188.461 105.816, 179.216 105.210 C 172.519 104.771, 172.053 104.599, 173.428 103.080 C 177.034 99.095, 179.401 91.578, 179.437 83.994 C 179.494 72.247, 177.172 68.500, 158.251 49.810 C 142.555 34.306, 142.384 34.174, 134.997 31.930 C 128.361 29.915, 126.860 29.789, 121.145 30.768 C 117.342 31.419, 112.805 33.065, 109.991 34.815 L 105.248 37.763 104.780 30.632 C 104.189 21.626, 100.914 14.906, 94.150 8.825 C 86.061 1.552, 83.048 0.989, 52.635 1.067 C 34.185 1.114, 25.280 1.515, 22.353 2.431 M 24.923 24.923 L 22 27.846 22 105 L 22 182.154 24.923 185.077 L 27.846 188 55.923 188 L 84 188 84 108.950 C 84 24.118, 84.093 25.725, 79.055 23.030 C 77.885 22.403, 67.478 22, 52.489 22 L 27.846 22 24.923 24.923 M 121.500 52.154 C 120.400 52.755, 116.237 56.443, 112.250 60.348 L 105 67.450 105 104.968 L 105 142.485 130.566 116.993 C 144.628 102.972, 156.778 90.285, 157.566 88.800 C 160.732 82.837, 159.997 81.571, 144.213 65.787 C 131.737 53.310, 128.963 51.005, 126.463 51.030 C 124.833 51.047, 122.600 51.553, 121.500 52.154 M 127.742 148.758 L 105 171.516 105 179.758 L 105 188 143.577 188 L 182.154 188 185.077 185.077 L 188 182.154 188 156.978 L 188 131.802 184.894 128.901 L 181.788 126 166.136 126 L 150.484 126 127.742 148.758 M 48 137.752 C 45.489 139.006, 44.149 140.575, 43.259 143.303 C 39.857 153.721, 51.919 161.549, 59.894 154.099 C 65.528 148.836, 63.638 139.714, 56.339 136.939 C 52.950 135.650, 52.026 135.741, 48 137.752" stroke="none" fill="black" fill-rule="evenodd"/>
</svg>