<svg xmlns="http://www.w3.org/2000/svg" width="304" height="238" viewBox="0 0 304 238" version="1.1">
	<path d="M 158.500 3.660 C 153.617 5.146, 148.009 8.691, 145 12.197 C 143.943 13.428, 140.840 14.261, 134.500 15.017 C 123.277 16.354, 118.048 17.711, 117.376 19.462 C 116.178 22.584, 123.066 30.934, 128.563 33.024 C 130.728 33.847, 132.570 38.996, 131.058 39.997 C 129.437 41.071, 127.918 45.166, 128.482 46.943 C 128.832 48.047, 127.740 51.518, 125.811 55.429 C 123.041 61.047, 122.734 62.345, 123.782 64.023 C 124.484 65.147, 124.593 66, 124.034 66 C 123.494 66, 122.315 67.423, 121.416 69.163 C 118.151 75.477, 122.062 85.126, 129.063 88.026 C 131.688 89.113, 132.797 89.116, 135.374 88.039 C 137.093 87.321, 141.875 86.393, 146 85.977 C 153.334 85.236, 153.567 85.283, 156.500 88.064 C 158.654 90.105, 159.465 91.767, 159.375 93.954 C 159.045 101.987, 159.041 102, 156.917 102 C 153.017 102, 138.512 106.152, 135.128 108.237 C 133.273 109.380, 124.534 116.073, 115.708 123.111 C 106.882 130.149, 99.331 135.704, 98.928 135.456 C 98.526 135.207, 94.930 130.165, 90.939 124.252 C 86.948 118.338, 81.259 110.462, 78.298 106.750 C 73.796 101.106, 72.421 100, 69.906 100 C 67.440 100, 66.646 99.397, 65.499 96.652 C 63.948 92.940, 62 79.134, 62 71.853 C 62 68.058, 61.352 66.305, 58.635 62.745 L 55.270 58.336 56.563 52.062 C 57.274 48.611, 57.624 45.273, 57.340 44.644 C 57.057 44.015, 53.377 40.462, 49.163 36.750 C 43.591 31.842, 40.735 30, 38.696 30 C 37.153 30, 32.932 28.215, 29.315 26.034 C 24.025 22.844, 22.364 22.270, 20.814 23.100 C 17.384 24.935, 17.552 26.957, 21.468 30.967 L 25.203 34.793 19.102 43.106 C 15.746 47.678, 13 52.032, 13 52.781 C 13 53.531, 11.919 56.024, 10.598 58.322 C 7.074 64.451, 3.314 75.667, 1.451 85.609 C -1.116 99.311, -0.185 127.284, 3.268 140.206 C 6.283 151.485, 12.705 165.796, 16.418 169.509 C 17.838 170.929, 19 172.505, 19 173.010 C 19 173.516, 19.900 174.411, 21 175 C 22.100 175.589, 23 176.641, 23 177.339 C 23 178.799, 29.117 185, 30.557 185 C 31.086 185, 32.081 185.900, 32.768 187 C 33.455 188.100, 34.688 189, 35.508 189 C 36.329 189, 37 189.450, 37 190 C 37 190.550, 37.675 191, 38.500 191 C 39.325 191, 40 191.382, 40 191.848 C 40 192.315, 41.913 193.544, 44.250 194.580 C 46.588 195.617, 49.109 197.050, 49.854 197.765 C 52.236 200.053, 58.818 202.995, 65.251 204.648 C 73.282 206.711, 82.779 206.043, 101.811 202.077 C 109.683 200.436, 119.920 198.786, 124.561 198.410 C 132.978 197.727, 133 197.731, 133.015 200.112 C 133.034 203.057, 133.872 204.370, 136.669 205.842 C 137.862 206.470, 139.125 208.291, 139.476 209.890 C 139.848 211.583, 140.926 213.009, 142.057 213.305 C 143.126 213.584, 144 214.477, 144 215.290 C 144 216.845, 146.814 217.942, 151 218.018 C 154.645 218.084, 156.268 219.829, 158.424 226 C 159.482 229.025, 160.950 232.963, 161.687 234.750 L 163.027 238 211.861 238 L 260.694 238 261.757 230.423 C 262.342 226.256, 263.031 222.636, 263.287 222.379 C 263.544 222.123, 270.447 221.514, 278.627 221.027 C 286.807 220.540, 295.525 219.529, 298 218.779 L 302.500 217.417 302.802 207.958 C 303.189 195.877, 300.725 176.364, 297.040 162.318 C 287.414 125.629, 272.237 101.105, 253.500 91.965 C 246.752 88.673, 232.867 84.769, 221.255 82.897 C 213.767 81.691, 213.325 81.463, 208.428 76.287 C 205.358 73.042, 202.792 71.137, 201.928 71.462 C 200.881 71.854, 199.936 70.140, 198.387 65.039 L 196.274 58.080 200.836 48.861 C 207.035 36.333, 207.514 30.518, 203.087 21.526 C 195.881 6.889, 175.170 -1.410, 158.500 3.660 M 148 33.642 C 148 36.054, 150.278 38.326, 152.202 37.833 C 153.071 37.610, 152.591 36.513, 150.750 34.515 C 148.226 31.776, 148 31.704, 148 33.642 M 25 58.051 C 25 58.629, 23.433 59.757, 21.517 60.557 C 19.220 61.517, 17.353 63.347, 16.034 65.934 C 13.253 71.384, 9.241 85.647, 8.517 92.652 C 7.591 101.618, 7.235 114, 7.903 114.002 C 8.231 114.003, 8.608 116.863, 8.740 120.357 C 9.124 130.516, 14.260 148.968, 19.293 158.275 C 23.916 166.822, 26.794 169.586, 25.650 164.381 C 25.302 162.796, 24.523 159.250, 23.919 156.500 C 22.234 148.829, 22.519 127.857, 24.460 116.687 C 25.398 111.289, 25.917 106.227, 25.614 105.437 C 25.311 104.646, 25.574 104, 26.198 104 C 26.822 104, 27.059 103.726, 26.724 103.391 C 26.389 103.056, 27.017 100.495, 28.119 97.699 L 30.122 92.616 25.679 88.558 C 20.468 83.798, 19.662 81.958, 21.163 78.241 C 21.772 76.734, 22.410 74.421, 22.582 73.102 C 22.754 71.784, 23.369 70.231, 23.948 69.652 C 24.526 69.074, 25 67.591, 25 66.357 C 25 65.123, 25.933 63.460, 27.074 62.661 C 28.887 61.391, 28.982 60.945, 27.833 59.104 C 26.429 56.856, 25 56.325, 25 58.051 M 36.035 104.874 C 31.112 123.138, 30.208 145.716, 33.855 159.314 C 36.697 169.910, 41.397 178.389, 48.088 184.993 C 61.172 197.908, 71.435 199.553, 101.697 193.587 C 114.428 191.078, 122.610 190, 128.933 190 L 137.972 190 140.564 186.082 L 143.157 182.164 141.382 173.623 C 140.215 168.009, 139.246 165.357, 138.553 165.884 C 134.619 168.881, 113.151 175.457, 94.500 179.379 L 82.500 181.903 78.661 179.254 C 73.921 175.983, 67.903 169.256, 63.225 162 C 58.670 154.933, 47.088 133.352, 43.462 125.171 C 40.952 119.509, 40.784 118.486, 41.872 115.477 C 42.973 112.432, 42.809 111.560, 40.151 106.306 L 37.214 100.500 36.035 104.874 M 68.872 116.750 C 67.629 118.336, 67.664 118.371, 69.250 117.128 C 70.916 115.821, 71.445 115, 70.622 115 C 70.415 115, 69.627 115.787, 68.872 116.750 M 127.740 117.540 C 126.233 118.938, 125 120.372, 125 120.728 C 125 121.083, 126.350 120.081, 128 118.500 C 130.757 115.859, 131.429 115, 130.740 115 C 130.597 115, 129.247 116.143, 127.740 117.540" stroke="none" fill="black" fill-rule="evenodd"/>
</svg>